Coordinates
version=1
nRows=9
nColumns=63
inDegrees=yes

Units are S.I. units (second, meters, Newtons, ...)
If the header above contains a line with 'inDegrees', this indicates whether rotational values are in degrees (yes) or radians (no).

endheader
time	pelvis_tilt	pelvis_list	pelvis_rotation	pelvis_tx	pelvis_ty	pelvis_tz	hip_flexion_r	hip_adduction_r	hip_rotation_r	knee_angle_r	knee_angle_r_beta	ankle_angle_r	subtalar_angle_r	mtp_angle_r	hip_flexion_l	hip_adduction_l	hip_rotation_l	knee_angle_l	knee_angle_l_beta	ankle_angle_l	subtalar_angle_l	mtp_angle_l	L5_S1_Flex_Ext	L5_S1_Lat_Bending	L5_S1_axial_rotation	L4_L5_Flex_Ext	L4_L5_Lat_Bending	L4_L5_axial_rotation	L3_L4_Flex_Ext	L3_L4_Lat_Bending	L3_L4_axial_rotation	L2_L3_Flex_Ext	L2_L3_Lat_Bending	L2_L3_axial_rotation	L1_L2_Flex_Ext	L1_L2_Lat_Bending	L1_L2_axial_rotation	L1_T12_Flex_Ext	L1_T12_Lat_Bending	L1_T12_axial_rotation	Abs_r3	Abs_r2	Abs_r1	Abs_t1	Abs_t2	neck_flexion	neck_bending	neck_rotation	arm_flex_r	arm_add_r	arm_rot_r	elbow_flex_r	pro_sup_r	wrist_flex_r	wrist_dev_r	arm_flex_l	arm_add_l	arm_rot_l	elbow_flex_l	pro_sup_l	wrist_flex_l	wrist_dev_l
3.358974	-2.345485	1.557519	88.675021	0.224394	0.879260	0.454129	-13.102727	-0.947673	7.716277	2.628803	0.045881	18.498108	-15.577847	0.000000	-14.522757	1.937580	9.108139	0.483093	0.008432	21.878388	-13.814966	0.000000	0.379164	-0.188722	1.063815	0.704145	-0.251000	1.130304	0.622928	-0.458859	1.130304	0.433346	-0.458859	0.930838	0.352091	-0.384842	0.864350	0.216654	-0.292331	0.797861	2.708328	-2.134863	5.916622	0.000000	0.000000	28.329509	-9.992188	18.267014	1.599001	-9.058421	158.651824	2.730280	2.371093	-4.995655	-7.797017	3.170962	-11.493272	160.560169	4.666470	12.654409	-1.607714	-1.703922
3.384615	-2.302947	1.585763	88.589062	0.224980	0.879337	0.454713	-13.038255	-0.871781	7.774680	2.668299	0.046571	18.429778	-15.759610	0.000000	-14.510817	1.880587	9.013397	0.503118	0.008781	21.780524	-13.825048	0.000000	0.365963	-0.192863	1.067648	0.679630	-0.256507	1.134376	0.601241	-0.468926	1.134376	0.418259	-0.468926	0.934192	0.339833	-0.393285	0.867464	0.209111	-0.298744	0.800736	2.614038	-2.181700	5.937939	0.000000	0.000000	28.322047	-10.163469	18.011692	1.674624	-9.015551	157.759133	2.640139	2.305374	-4.902432	-7.919571	3.246010	-11.551888	160.812106	4.690311	12.742909	-1.642885	-1.692115
3.410256	-2.277302	1.596510	88.569451	0.225444	0.879395	0.455300	-12.974280	-0.803689	7.833051	2.682634	0.046821	18.361569	-15.988174	0.000000	-14.477231	1.828235	8.935582	0.521209	0.009097	21.695252	-13.782609	0.000000	0.355111	-0.198205	1.050694	0.659477	-0.263613	1.116362	0.583412	-0.481917	1.116362	0.405857	-0.481917	0.919357	0.329756	-0.404181	0.853688	0.202911	-0.307020	0.788020	2.536524	-2.242140	5.843642	0.000000	0.000000	28.313279	-10.218621	17.913894	1.756677	-8.958225	156.984852	2.547842	2.168835	-4.767544	-8.046233	3.298283	-11.606328	161.118354	4.683224	13.044728	-1.767084	-1.697070
3.435897	-2.252360	1.618123	88.599790	0.225765	0.879454	0.455977	-12.917934	-0.731788	7.853385	2.715082	0.047387	18.324159	-16.209866	0.000000	-14.450793	1.769782	8.990792	0.535612	0.009348	21.611667	-13.839736	0.000000	0.341415	-0.202504	1.020310	0.634042	-0.269331	1.084080	0.560911	-0.492369	1.084080	0.390203	-0.492369	0.892771	0.317038	-0.412947	0.829002	0.195084	-0.313679	0.765233	2.438693	-2.290769	5.674659	0.000000	0.000000	28.304338	-10.275413	17.830673	1.859191	-8.895440	156.603601	2.428678	2.099951	-4.675756	-8.150781	3.359889	-11.638956	161.673061	4.640063	13.342511	-1.897994	-1.700950
3.461538	-2.238750	1.642550	88.707522	0.225889	0.879492	0.456731	-12.883359	-0.664272	7.853094	2.724550	0.047552	18.289712	-16.454286	0.000000	-14.419989	1.711159	9.135517	0.548373	0.009571	21.557079	-13.916673	0.000000	0.327373	-0.207230	0.980101	0.607964	-0.275616	1.041357	0.537841	-0.503859	1.041357	0.374154	-0.503859	0.857588	0.303998	-0.422584	0.796332	0.187061	-0.320999	0.735075	2.338391	-2.344228	5.451026	0.000000	0.000000	28.293039	-10.355292	17.693088	1.943455	-8.826405	156.381930	2.294149	2.083883	-4.594709	-8.266221	3.434100	-11.653656	162.341787	4.577519	13.689366	-2.062606	-1.707468
3.487179	-2.222399	1.694436	88.836085	0.225868	0.879533	0.457643	-12.858167	-0.600425	7.782603	2.780060	0.048521	18.346423	-16.555889	0.000000	-14.405572	1.651923	9.214526	0.570481	0.009957	21.574029	-13.848045	0.000000	0.308748	-0.209923	0.942706	0.573376	-0.279198	1.001625	0.507242	-0.510408	1.001625	0.352868	-0.510408	0.824868	0.286704	-0.428076	0.765948	0.176419	-0.325171	0.707029	2.205357	-2.374695	5.243047	0.000000	0.000000	28.268929	-10.435521	17.530736	2.035642	-8.763570	156.401827	2.180603	2.154631	-4.570680	-8.340544	3.556344	-11.645076	162.904098	4.540033	14.250306	-2.200548	-1.714198
3.512821	-2.200977	1.773404	88.987137	0.225685	0.879566	0.458685	-12.857275	-0.534327	7.754555	2.850697	0.049754	18.381737	-16.733741	0.000000	-14.419078	1.592150	9.382035	0.578435	0.010096	21.601806	-13.884824	0.000000	0.286344	-0.209794	0.908909	0.531769	-0.279026	0.965716	0.470434	-0.510093	0.965716	0.327262	-0.510093	0.795295	0.265899	-0.427812	0.738488	0.163617	-0.324971	0.681682	2.045325	-2.373231	5.055078	0.000000	0.000000	28.245502	-10.571987	17.333986	2.114063	-8.709796	156.865477	2.035828	2.223074	-4.558306	-8.357200	3.698702	-11.601170	163.577904	4.468756	14.757908	-2.276398	-1.731671
3.538462	-2.165194	1.873278	89.148993	0.225349	0.879579	0.459874	-12.863442	-0.460601	7.654764	2.960559	0.051672	18.451522	-16.795492	0.000000	-14.450188	1.525304	9.517885	0.580863	0.010138	21.708871	-13.869832	0.000000	0.260371	-0.205057	0.877751	0.483536	-0.272726	0.932611	0.427764	-0.498576	0.932611	0.297579	-0.498576	0.768032	0.241781	-0.418153	0.713173	0.148776	-0.317634	0.658313	1.859807	-2.319648	4.881788	0.000000	0.000000	28.214454	-10.673108	17.244510	2.202420	-8.672892	157.788102	1.890879	2.379472	-4.595748	-8.322122	3.853362	-11.522445	164.130958	4.381545	15.326836	-2.323304	-1.775367
3.564103	-2.126529	1.989126	89.295774	0.224899	0.879559	0.461182	-12.870358	-0.394334	7.567492	3.112378	0.054321	18.521168	-16.866393	0.000000	-14.496614	1.469096	9.695357	0.579751	0.010119	21.861120	-13.924918	0.000000	0.232375	-0.197435	0.854846	0.431543	-0.262588	0.908274	0.381768	-0.480043	0.908274	0.265581	-0.480043	0.747991	0.215783	-0.402609	0.694563	0.132779	-0.305826	0.641135	1.659828	-2.233421	4.754399	0.000000	0.000000	28.176450	-10.774082	17.187896	2.287431	-8.647202	159.100655	1.741926	2.614852	-4.691998	-8.234732	4.018519	-11.413775	164.586028	4.283876	15.828309	-2.333461	-1.815111
